<svg width="48" height="60" viewBox="0 0 48 60" fill="none" xmlns="http://www.w3.org/2000/svg">
<path d="M41.5454 0.818115H6.63643C3.88225 0.818115 1.64941 3.0508 1.64941 5.80513V54.0128C1.64941 56.767 3.88209 58.9998 6.63643 58.9998H30.7403C31.3913 58.989 31.9761 58.5993 32.2364 58.0025L45.7013 44.5375C46.2203 44.2585 46.5407 43.7138 46.5324 43.1245V5.80513C46.5324 3.05095 44.2998 0.818115 41.5454 0.818115ZM32.4026 53.1817V46.5324C32.4026 45.6143 33.1468 44.87 34.065 44.87H40.7974L32.4026 53.1817ZM43.2077 41.5454H34.065C31.3108 41.5454 29.0779 43.778 29.0779 46.5324V55.6752H6.63643C5.71832 55.6752 4.97409 54.9309 4.97409 54.0128V5.80513C4.97409 4.88702 5.71832 4.14279 6.63643 4.14279H41.5456C42.4637 4.14279 43.2079 4.88702 43.2079 5.80513V41.5454H43.2077Z" fill="black" stroke="white" stroke-width="1.5"/>
<path d="M12.8703 27.8311H9.54564C8.62753 27.8311 7.8833 28.5753 7.8833 29.4934C7.8833 30.4115 8.62753 31.1557 9.54564 31.1557H12.8703C13.7884 31.1557 14.5327 30.4115 14.5327 29.4934C14.5327 28.5753 13.7883 27.8311 12.8703 27.8311Z" fill="black" stroke="white" stroke-width="1.5"/>
<path d="M36.9742 27.8311H17.8572C16.9391 27.8311 16.1948 28.5753 16.1948 29.4934C16.1948 30.4115 16.9391 31.1557 17.8572 31.1557H36.974C37.8921 31.1557 38.6363 30.4115 38.6363 29.4934C38.6363 28.5753 37.8923 27.8311 36.9742 27.8311Z" fill="black" stroke="white" stroke-width="1.5"/>
<path d="M12.8703 36.1428H9.54564C8.62753 36.1428 7.8833 36.887 7.8833 37.8052C7.8833 38.7233 8.62753 39.4675 9.54564 39.4675H12.8703C13.7884 39.4675 14.5327 38.7233 14.5327 37.8052C14.5325 36.887 13.7883 36.1428 12.8703 36.1428Z" fill="black" stroke="white" stroke-width="1.5"/>
<path d="M36.9742 36.1428H17.8572C16.9391 36.1428 16.1948 36.887 16.1948 37.8052C16.1948 38.7233 16.9391 39.4675 17.8572 39.4675H36.974C37.8921 39.4675 38.6363 38.7233 38.6363 37.8052C38.6365 36.887 37.8923 36.1428 36.9742 36.1428Z" fill="black" stroke="white" stroke-width="1.5"/>
<path d="M12.8703 19.5194H9.54564C8.62753 19.5194 7.8833 20.2636 7.8833 21.1817C7.8833 22.0999 8.62753 22.8441 9.54564 22.8441H12.8703C13.7884 22.8441 14.5327 22.0999 14.5327 21.1817C14.5327 20.2636 13.7883 19.5194 12.8703 19.5194Z" fill="black" stroke="white" stroke-width="1.5"/>
<path d="M36.9742 19.5194H17.8572C16.9391 19.5194 16.1948 20.2636 16.1948 21.1817C16.1948 22.0999 16.9391 22.8441 17.8572 22.8441H36.974C37.8921 22.8441 38.6363 22.0999 38.6363 21.1817C38.6363 20.2636 37.8923 19.5194 36.9742 19.5194Z" fill="black" stroke="white" stroke-width="1.5"/>
<path d="M12.8703 11.2079H9.54564C8.62753 11.2079 7.8833 11.9521 7.8833 12.8702C7.8833 13.7883 8.62753 14.5326 9.54564 14.5326H12.8703C13.7884 14.5326 14.5327 13.7883 14.5327 12.8702C14.5327 11.9521 13.7883 11.2079 12.8703 11.2079Z" fill="black" stroke="white" stroke-width="1.5"/>
<path d="M36.9742 11.2079H17.8572C16.9391 11.2079 16.1948 11.9521 16.1948 12.8702C16.1948 13.7883 16.9391 14.5326 17.8572 14.5326H36.974C37.8921 14.5326 38.6363 13.7883 38.6363 12.8702C38.6363 11.9521 37.8923 11.2079 36.9742 11.2079Z" fill="black" stroke="white" stroke-width="1.5"/>
</svg>
