<svg width="40" height="40" viewBox="0 0 40 40" fill="none" xmlns="http://www.w3.org/2000/svg">
<g clip-path="url(#clip0_233_4421)">
<path d="M3.97047 3.97112L3.97112 3.97047C5.42894 2.50932 7.2854 1.76072 9.86492 1.38186C12.4581 1.00099 15.7311 1 19.9965 1C24.2618 1 27.5349 1.00098 30.1291 1.381C32.7094 1.75899 34.5679 2.50591 36.0292 3.96376C37.4906 5.42518 38.2393 7.28362 38.6181 9.86403C38.999 12.4581 39 15.7311 39 19.9965C39 24.2618 38.999 27.5348 38.6181 30.1289C38.2393 32.7093 37.4906 34.5678 36.0292 36.0292C34.5678 37.4906 32.7077 38.2393 30.1263 38.6181C27.5313 38.999 24.2583 39 19.9965 39C15.7347 39 12.4616 38.999 9.86754 38.6181C7.28706 38.2393 5.42886 37.4906 3.97112 36.0295L3.9708 36.0292C2.50942 34.5678 1.76074 32.7077 1.38186 30.1263C1.00099 27.5313 1 24.2583 1 19.9965C1 15.7347 1.00099 12.4616 1.38186 9.86754C1.76074 7.28706 2.50938 5.42886 3.97047 3.97112Z" stroke="white"/>
<path d="M19.138 33.8534C17.7012 32.7579 16.6416 31.1235 16.3004 29.2198H11.6667V9.19466C14.1632 10.4339 15.9412 13.1817 16.1567 16.0194L16.8571 21.6408L16.5159 21.5869C15.7616 21.5869 15.115 22.2873 15.115 22.9877C15.115 23.6343 15.6179 24.1911 16.2645 24.3347L17.1085 24.5323C18.5094 21.8922 19.2997 19.306 19.2997 16.7557C19.2997 14.4569 18.9943 12.176 18.9584 9.8412C18.9584 8.79954 19.3535 7.84766 20.0001 7.11133C20.6466 7.86562 21.0417 8.79954 21.0417 9.8412C21.0417 12.176 20.7005 14.4748 20.7005 16.7557C20.7005 19.288 21.4907 21.8922 22.8916 24.5323L23.7357 24.3347C24.3822 24.1911 24.8851 23.6343 24.8851 22.9877C24.8851 22.2873 24.2386 21.5869 23.4843 21.5869L23.143 21.6408L23.8435 16.0194C24.1847 13.1817 25.837 10.4339 28.3334 9.19466V29.2198H23.6998C23.3585 31.1056 22.3528 32.8117 20.8622 33.8534C20.5209 34.1049 20.2156 34.4102 20.018 34.8053C19.7846 34.3922 19.4792 34.1049 19.138 33.8534ZM13.8578 22.3053C14.0554 21.551 14.6122 20.9044 15.2946 20.5093L14.7379 15.8757C14.5403 14.4389 13.9476 13.1458 13.0497 12.0862V22.2873H13.8578V22.3053ZM16.2106 27.819C16.2106 27.1185 16.3183 26.472 16.462 25.8254L15.8155 25.6817C14.8636 25.3764 14.1272 24.6401 13.8758 23.6882H13.0856V27.819H16.2106ZM19.2817 27.819C19.2817 26.9748 18.6351 26.2205 17.791 26.1307C17.6474 26.6695 17.5396 27.2263 17.5396 27.819H19.2817ZM19.2817 29.2198H17.7372C17.9886 30.3153 18.5274 31.3031 19.2817 32.1652V29.2198ZM21.4728 24.8915C20.8801 23.796 20.3234 22.6465 19.9821 21.4612C19.6409 22.6645 19.0841 23.796 18.4915 24.8915C19.0841 25.0352 19.587 25.4303 19.9821 25.8793C20.3772 25.4303 20.8801 25.0352 21.4728 24.8915ZM22.4247 27.819C22.4247 27.2263 22.3169 26.6695 22.1732 26.1307C21.3291 26.2385 20.6825 26.9748 20.6825 27.819H22.4247ZM22.2271 29.2198H20.6825V32.1652C21.4369 31.3031 21.9757 30.3153 22.2271 29.2198ZM26.9146 27.819V23.6882H26.1244C25.8729 24.6401 25.1366 25.3764 24.1847 25.6817L23.5382 25.8254C23.6818 26.472 23.7896 27.1185 23.7896 27.819H26.9146ZM26.9146 22.3053V12.1042C26.0166 13.1458 25.37 14.4389 25.2264 15.8937L24.6696 20.5273C25.37 20.9224 25.9088 21.569 26.1064 22.3232H26.9146V22.3053Z" fill="white"/>
</g>
<defs>
<clipPath id="clip0_233_4421">
<rect width="40" height="40" fill="white"/>
</clipPath>
</defs>
</svg>
