<svg width="65" height="64" viewBox="0 0 65 64" fill="none" xmlns="http://www.w3.org/2000/svg">
<g clip-path="url(#clip0_339_49820)">
<path d="M55.8637 28.3392V10.2805C55.8637 7.16446 53.1019 4.96909 49.9859 4.96909H45.241V1.14506C45.3259 0.604082 44.9561 0.096851 44.4151 0.0119962C44.3133 -0.00399875 44.2096 -0.00399875 44.108 0.0119962H37.3802C36.6012 0.0119962 36.0346 0.366055 36.0346 1.14506V4.96922H20.4546V1.14506C20.4546 0.366055 19.534 0.0119962 18.755 0.0119962H12.0272C11.2482 0.0119962 10.5401 0.366055 10.5401 1.14506V4.96922H6.2202C3.10416 4.96922 0.62561 7.1646 0.62561 10.2806V51.3552C0.62561 54.4713 3.10429 56.6666 6.2202 56.6666H29.8735C36.5796 65.0758 48.833 66.4565 57.2422 59.7504C61.8475 56.0778 64.5432 50.5179 64.5745 44.6276C64.4597 38.113 61.2181 32.0516 55.8637 28.3392ZM38.8674 2.8446H42.4083V9.21819H38.8674V2.8446ZM13.3728 2.8446H17.6219V9.21819H13.3728V2.8446ZM3.45821 10.2805C3.45821 8.72248 4.66218 7.80182 6.2202 7.80182H10.5401V10.4929C10.5727 11.3127 11.21 11.9802 12.0272 12.0509H18.755C19.6168 11.9945 20.3236 11.3466 20.4546 10.4929V7.80196H36.0347V10.493C35.9932 11.289 36.5867 11.9762 37.3803 12.0511H44.1081C44.8871 12.0511 45.2412 11.2721 45.2412 10.493V7.80196H49.986C51.544 7.80196 53.0311 8.72262 53.0311 10.2806V19.1329H3.45821V10.2805ZM6.2202 53.8339C4.66218 53.8339 3.45821 52.9132 3.45821 51.3552V21.9655H53.031V26.852C50.5428 25.7901 47.8748 25.2133 45.1702 25.1523C34.4143 25.1653 25.7056 33.8951 25.7186 44.6509C25.7226 47.8556 26.5172 51.0097 28.0321 53.8338H6.2202V53.8339ZM45.0286 61.1989C35.8375 61.2379 28.3548 53.8186 28.3158 44.6274C28.2767 35.4363 35.6961 27.9536 44.8873 27.9146C54.0784 27.8755 61.5611 35.2949 61.6001 44.486C61.6003 44.5332 61.6003 44.5803 61.6001 44.6274C61.6001 53.7797 54.1807 61.1989 45.0286 61.1989Z" fill="black" stroke="#F4F8FE"/>
<path d="M51.6855 44.6275H45.2411V36.1293C45.2411 35.347 44.607 34.7129 43.8247 34.7129C43.0424 34.7129 42.4083 35.347 42.4083 36.1293V46.0438C42.5479 46.8706 43.2696 47.4719 44.108 47.4602H51.6855C52.4678 47.4602 53.1019 46.8261 53.1019 46.0438C53.1019 45.2616 52.4678 44.6275 51.6855 44.6275Z" fill="black" stroke="#F4F8FE"/>
</g>
<defs>
<clipPath id="clip0_339_49820">
<rect width="64" height="64" fill="white" transform="translate(0.599976)"/>
</clipPath>
</defs>
</svg>
