<svg width="64" height="64" viewBox="0 0 64 64" fill="none" xmlns="http://www.w3.org/2000/svg">
<g clip-path="url(#clip0_339_49935)">
<path d="M50.7414 8.38518H44.9514V5.79495C44.9514 4.95691 44.0372 4.57602 43.1992 4.57602H38.7044C37.6378 1.52863 34.9713 0.00493283 31.9239 0.00493283C28.9101 -0.108371 26.1688 1.73963 25.1435 4.57602H20.7248C19.8868 4.57602 19.0487 4.95691 19.0487 5.79495V8.38518H13.2586C9.82736 8.42178 7.02029 11.1285 6.85901 14.5561V58.2098C6.85901 61.562 9.9064 63.9998 13.2586 63.9998H50.7414C54.0936 63.9998 57.1409 61.562 57.1409 58.2098V14.5562C56.9797 11.1285 54.1726 8.42178 50.7414 8.38518ZM22.096 7.62341H26.2862C27.0176 7.53416 27.6051 6.97771 27.7337 6.2521C28.1849 4.28729 29.9087 2.8769 31.9239 2.82382C33.9205 2.88434 35.6183 4.2991 36.0379 6.2521C36.1745 7.00279 36.8008 7.56639 37.5616 7.62341H41.9041V13.7182H22.096V7.62341ZM54.0936 58.21C54.0936 59.886 52.4175 60.9526 50.7414 60.9526H13.2586C11.5825 60.9526 9.9064 59.886 9.9064 58.21V14.5562C10.0618 12.8116 11.5072 11.4647 13.2586 11.4327H19.0486V15.3181C19.1291 16.1718 19.8684 16.8103 20.7246 16.7657H43.199C44.0711 16.8134 44.8336 16.1836 44.9512 15.3181V11.4326H50.7413C52.4924 11.4647 53.938 12.8115 54.0934 14.5561V58.21H54.0936Z" fill="black" stroke="#F0F7EF" stroke-width="1.1"/>
<path d="M26.1338 34.0595C25.5623 33.4571 24.6136 33.4231 24.0005 33.9834L19.1247 38.6306L17.0677 36.4974C16.4962 35.895 15.5475 35.8611 14.9345 36.4212C14.3443 37.0395 14.3443 38.0123 14.9345 38.6306L18.058 41.8304C18.3284 42.1331 18.7189 42.3005 19.1245 42.2875C19.5264 42.2818 19.9098 42.1175 20.1911 41.8304L26.1335 36.1927C26.7226 35.6523 26.762 34.7366 26.2214 34.1476C26.1937 34.1168 26.1644 34.0875 26.1338 34.0595Z" fill="black" stroke="#F0F7EF" stroke-width="1.1"/>
<path d="M47.9988 37.3353H30.4763C29.6348 37.3353 28.9526 38.0175 28.9526 38.859C28.9526 39.7006 29.6348 40.3827 30.4763 40.3827H47.9988C48.8403 40.3827 49.5224 39.7006 49.5224 38.859C49.5224 38.0175 48.8403 37.3353 47.9988 37.3353Z" fill="black" stroke="#F0F7EF" stroke-width="1.1"/>
<path d="M26.1338 21.8699C25.5623 21.2675 24.6136 21.2336 24.0005 21.7938L19.1247 26.441L17.0677 24.3078C16.4962 23.7054 15.5475 23.6714 14.9345 24.2317C14.3443 24.8499 14.3443 25.8227 14.9345 26.441L18.058 29.6408C18.3284 29.9435 18.7189 30.1109 19.1245 30.0979C19.5264 30.0922 19.9098 29.9279 20.1911 29.6408L26.1335 24.0032C26.7226 23.4627 26.762 22.547 26.2214 21.958C26.1937 21.9272 26.1644 21.8979 26.1338 21.8699Z" fill="black" stroke="#F0F7EF" stroke-width="1.1"/>
<path d="M47.9988 25.1459H30.4763C29.6348 25.1459 28.9526 25.828 28.9526 26.6696C28.9526 27.5111 29.6348 28.1933 30.4763 28.1933H47.9988C48.8403 28.1933 49.5224 27.5111 49.5224 26.6696C49.5224 25.828 48.8403 25.1459 47.9988 25.1459Z" fill="black" stroke="#F0F7EF" stroke-width="1.1"/>
<path d="M26.1338 46.2489C25.5623 45.6465 24.6136 45.6127 24.0005 46.1728L19.1247 50.82L17.0677 48.6867C16.4962 48.0844 15.5475 48.0505 14.9345 48.6106C14.3443 49.2289 14.3443 50.2017 14.9345 50.82L18.058 54.0198C18.3284 54.3225 18.7189 54.4899 19.1245 54.4769C19.5264 54.4712 19.9098 54.3069 20.1911 54.0198L26.1335 48.3821C26.7226 47.8417 26.762 46.9259 26.2214 46.337C26.1937 46.3063 26.1644 46.277 26.1338 46.2489Z" fill="black" stroke="#F0F7EF" stroke-width="1.1"/>
<path d="M47.9988 49.5249H30.4763C29.6348 49.5249 28.9526 50.2071 28.9526 51.0486C28.9526 51.8901 29.6348 52.5723 30.4763 52.5723H47.9988C48.8403 52.5723 49.5224 51.8901 49.5224 51.0486C49.5224 50.2071 48.8403 49.5249 47.9988 49.5249Z" fill="black" stroke="#F0F7EF" stroke-width="1.1"/>
</g>
<defs>
<clipPath id="clip0_339_49935">
<rect width="64" height="64" fill="white"/>
</clipPath>
</defs>
</svg>
