<svg width="64" height="64" viewBox="0 0 64 64" xmlns="http://www.w3.org/2000/svg">
<path d="M29.44 58.3467C42.5333 58.3467 53.2 47.68 53.2 34.56C53.2 33.84 52.6133 33.2267 51.8667 33.2267H30.7733V12.1334C30.7733 11.3867 30.16 10.8 29.44 10.8C16.32 10.8 5.65332 21.4667 5.65332 34.56C5.65332 47.68 16.32 58.3467 29.44 58.3467ZM28.1067 13.4934V34.56C28.1067 35.3067 28.6933 35.8934 29.44 35.8934H50.5067C49.8133 46.9067 40.6133 55.68 29.44 55.68C17.7867 55.68 8.31999 46.2134 8.31999 34.56C8.31999 23.3867 17.0933 14.1867 28.1067 13.4934Z" stroke="white" stroke-width="0.8"/>
<path d="M34.5599 30.7733H57.0132C57.7332 30.7733 58.3466 30.16 58.3466 29.44C58.3466 16.32 47.6799 5.65332 34.5599 5.65332C33.8399 5.65332 33.2266 6.26665 33.2266 6.98665V29.44C33.2266 30.16 33.8399 30.7733 34.5599 30.7733V30.7733ZM35.8932 8.37332C46.4799 9.03999 54.9599 17.52 55.6266 28.1067H35.8932V8.37332Z" stroke="white" stroke-width="0.8"/>
</svg>
