<svg width="64" height="64" viewBox="0 0 64 64" fill="none" xmlns="http://www.w3.org/2000/svg">
<g clip-path="url(#clip0_18_267)">
<path d="M51.7434 18.9614C51.7434 18.9061 51.7434 18.8646 51.7434 18.8092C51.7158 18.048 51.0653 17.4667 50.304 17.5082H24.6299C24.5745 17.5082 24.533 17.5082 24.4777 17.5082C23.7164 17.5359 23.1351 18.1864 23.1767 18.9476C23.1767 19.003 23.1767 19.0445 23.1767 19.0999C23.2043 19.8611 23.8548 20.4424 24.6161 20.4009H50.2902C50.3317 20.4009 50.3871 20.4009 50.4424 20.4009C51.2037 20.3732 51.785 19.7227 51.7434 18.9614Z" fill="black" stroke="white"/>
<path d="M38.7195 11.7229C38.7195 11.6676 38.7195 11.626 38.7195 11.5707C38.6919 10.8095 38.0414 10.2281 37.2801 10.2697H24.6299C24.5745 10.2697 24.533 10.2697 24.4777 10.2697C23.7164 10.2974 23.1351 10.9479 23.1767 11.7091C23.1767 11.7644 23.1767 11.806 23.1767 11.8613C23.2043 12.6226 23.8548 13.2039 24.6161 13.1623H37.2663C37.3216 13.1623 37.377 13.1623 37.4185 13.1623C38.1798 13.1347 38.7611 12.4842 38.7195 11.7229Z" fill="black" stroke="white"/>
<path d="M51.5219 0H11.9657C6.54022 0 3.86901 2.80962 3.7998 6.72648C3.7998 6.75416 3.7998 6.78185 3.7998 6.79569V29.937C3.7998 33.1203 6.55406 35.4317 9.72354 35.4317H15.3705V47.5836C15.2874 50.7808 17.8202 53.4382 21.0035 53.5074C21.0312 53.5074 21.0589 53.5074 21.0728 53.5074H35.5361V62.6144C35.5776 63.1542 35.9098 63.6248 36.408 63.8462C36.8786 64.04 37.4322 63.9985 37.8474 63.7078L43.6328 59.3757L49.4181 63.7078C49.7087 63.8739 50.0271 63.9846 50.3593 63.9985C50.5669 64.0123 50.7883 63.9293 50.9406 63.777C51.4111 63.5694 51.7433 63.1265 51.8125 62.6144V53.5074H54.1239C57.4179 53.5074 60.1168 50.8777 60.1998 47.5836V8.24894C60.1998 3.54317 56.2138 0 51.5219 0ZM15.3566 6.79569V32.539H9.72354C8.13188 32.539 6.69247 31.5287 6.69247 29.937V6.79569C6.77551 4.4428 8.67166 2.93419 11.0245 2.89266H11.8135C13.8618 3.00339 15.4397 4.74729 15.3566 6.79569ZM48.989 59.6526L44.657 56.3308C44.1033 55.971 43.3975 55.971 42.8439 56.3308L38.5118 59.6526L38.3734 46.9193C40.0204 47.8051 41.8612 48.2895 43.7297 48.2895C45.5981 48.2895 47.4389 47.8189 49.0859 46.9193L48.989 59.6526ZM43.8404 45.3968C43.7989 45.4107 43.7573 45.4107 43.702 45.4107C38.9547 45.4522 35.0655 41.6322 35.024 36.8849C34.9825 32.1376 38.8024 28.2485 43.5497 28.2069C48.297 28.1654 52.1862 31.9854 52.2277 36.7327C52.2277 36.7742 52.2277 36.8296 52.2277 36.8711C52.2692 41.5492 48.5185 45.3692 43.8404 45.3968ZM54.2761 50.6147H51.9647V44.8294C56.2968 40.2897 56.1307 33.1065 51.5911 28.7744C47.0514 24.4423 39.8682 24.6084 35.5361 29.1481C31.3701 33.5079 31.3424 40.3589 35.4669 44.7602V50.6147H21.0728C19.4811 50.5732 18.2078 49.2583 18.2493 47.6528C18.2493 47.6252 18.2493 47.5975 18.2493 47.5698V6.79569C18.2493 5.20403 17.7372 3.61237 16.8791 2.89266H51.5219C54.636 2.89266 57.3072 5.13483 57.3072 8.24894V47.5836C57.238 49.2307 55.9093 50.5455 54.2761 50.6147Z" fill="black" stroke="white"/>
</g>
<defs>
<clipPath id="clip0_18_267">
<rect width="64" height="64" fill="white"/>
</clipPath>
</defs>
</svg>
