<svg width="64" height="64" viewBox="0 0 64 64" fill="none" xmlns="http://www.w3.org/2000/svg">
<g clip-path="url(#clip0_18_222)">
<path d="M35.4401 38.4797H9.83999C8.95631 38.4797 8.23999 39.1961 8.23999 40.0797C8.23999 40.9634 8.95631 41.6797 9.83999 41.6797H35.4401C36.3237 41.6797 37.0401 40.9634 37.0401 40.0797C37.0401 39.1961 36.3237 38.4797 35.4401 38.4797Z" fill="black" stroke="white"/>
<path d="M9.83999 32.0796H23.4399C24.3236 32.0796 25.04 31.3633 25.04 30.4796C25.04 29.596 24.3236 28.8796 23.4399 28.8796H9.83999C8.95631 28.8796 8.23999 29.596 8.23999 30.4796C8.23999 31.3633 8.95631 32.0796 9.83999 32.0796Z" fill="black" stroke="white"/>
<path d="M35.4401 48.0797H9.83999C8.95631 48.0797 8.23999 48.796 8.23999 49.6797C8.23999 50.5634 8.95631 51.2797 9.83999 51.2797H35.4401C36.3237 51.2797 37.0401 50.5634 37.0401 49.6797C37.0401 48.796 36.3237 48.0797 35.4401 48.0797Z" fill="black" stroke="white"/>
<path d="M45.2001 19.0397L28.0801 2.87983C27.8147 2.58292 27.4382 2.40912 27.04 2.39978H6.63996C3.05148 2.44021 0.128013 5.29323 0 8.87973V55.2797C0.130003 58.8398 3.07781 61.6455 6.63996 61.5996H39.44C42.8421 61.6008 45.6009 58.8438 45.602 55.4417C45.602 55.3876 45.6014 55.3336 45.5999 55.2797V20.2398C45.6281 19.8029 45.4846 19.3723 45.2001 19.0397ZM28 7.43974L40.88 19.1997H29.8399C28.9243 19.2498 28.1236 18.5885 28 17.6797V7.43974ZM39.6044 58.3955C39.5498 58.3984 39.4949 58.3999 39.4401 58.3998H6.63996C4.8435 58.4471 3.32771 57.0723 3.20001 55.2798V8.87973C3.32389 7.06045 4.81685 5.637 6.63996 5.59979H24.8V17.6798C24.9292 20.3563 27.1609 22.4461 29.8399 22.3998H42.3999V55.2798C42.4884 56.9121 41.2367 58.3071 39.6044 58.3955Z" fill="black" stroke="white"/>
<path d="M62.7201 8.07979V6.71973C62.6922 5.55766 62.2364 4.44659 61.4401 3.59981C60.5401 2.78641 59.3733 2.33101 58.1602 2.31983C55.6863 2.27527 53.6448 4.24462 53.6003 6.71835C53.6003 6.71881 53.6003 6.71927 53.6003 6.71973V7.9997H50.2403C49.8421 8.00904 49.4656 8.18284 49.2002 8.47975C48.9042 8.73975 48.7548 9.12839 48.8003 9.51977V26.4798C48.8003 27.3634 49.5166 28.0798 50.4003 28.0798C51.284 28.0798 52.0003 27.3634 52.0003 26.4798V11.1997H52.8002V51.9198C52.8002 52.1597 52.7203 52.3998 52.8801 52.6398L56.8001 60.7998C57.0583 61.3572 57.6264 61.7043 58.2401 61.6798C58.831 61.6935 59.3703 61.3445 59.6002 60.7998L63.7601 52.6398C63.8754 52.413 63.9563 52.1703 64.0001 51.9198V9.59971C63.9509 8.86807 63.4328 8.25266 62.7201 8.07979ZM56.8001 6.71973C56.8424 6.04429 57.4033 5.51846 58.0801 5.51969C58.4061 5.49274 58.7275 5.60957 58.9601 5.83972C59.2033 6.06956 59.3469 6.3853 59.3601 6.71973V7.9997H56.8001V6.71973ZM58.16 56.5598L56.8 53.5997H59.6L58.16 56.5598ZM60.8001 50.3997H56.0001V31.1998H60.8001V50.3997ZM60.8001 27.9998H56.0001V27.1999H60.8001V27.9998ZM60.8001 23.9997H56.0001V11.1997H60.8001V23.9997Z" fill="black" stroke="white"/>
</g>
<defs>
<clipPath id="clip0_18_222">
<rect width="64" height="64" fill="white"/>
</clipPath>
</defs>
</svg>
