<svg width="64" height="64" viewBox="0 0 64 64" fill="none" xmlns="http://www.w3.org/2000/svg">
<path d="M60.8109 8.64812C59.5059 7.43249 57.4078 8.16219 55.8939 8.46942C55.7856 8.01689 55.579 7.59323 55.2886 7.22796C54.9982 6.86269 54.6309 6.56459 54.2124 6.35444C53.7939 6.14429 53.3341 6.02715 52.8653 6.01117C52.3964 5.99519 51.9297 6.08076 51.4976 6.26192L32 14.5935L12.5024 6.26186C12.0708 6.07639 11.6032 5.98747 11.1329 6.00142C10.6627 6.01538 10.2013 6.13186 9.7816 6.3426C9.3619 6.55334 8.99418 6.85315 8.7046 7.22072C8.41501 7.58829 8.21066 8.01459 8.10608 8.46932C6.63404 8.1793 4.47268 7.42128 3.18929 8.64825C2.81706 8.94628 2.51698 9.32327 2.31116 9.75148C2.10534 10.1797 1.99901 10.6482 2.00001 11.1225V49.0999C1.99937 49.8106 2.23862 50.501 2.67967 51.0613C3.12072 51.6216 3.73819 52.0194 4.43373 52.1915L31.74 58.9691C31.9108 59.0103 32.0892 59.0103 32.26 58.9691L59.5668 52.1915C60.2622 52.0193 60.8796 51.6214 61.3205 51.0612C61.7614 50.5009 62.0006 49.8105 62 49.0999V11.1225C62.001 10.6482 61.8947 10.1797 61.6889 9.75145C61.4831 9.32323 61.1831 8.9462 60.8109 8.64812ZM52.3462 8.21298C52.5092 8.14466 52.6867 8.11726 52.8629 8.1332C53.0392 8.14914 53.2088 8.20793 53.3566 8.30436C53.5045 8.40078 53.6261 8.53188 53.7106 8.68602C53.7952 8.84016 53.8401 9.0126 53.8413 9.18805V47.7763L33.0714 56.3427V16.449L52.3462 8.21298ZM10.1587 9.18805C10.1599 9.0126 10.2048 8.84016 10.2894 8.68602C10.3739 8.53188 10.4955 8.40079 10.6434 8.30437C10.7913 8.20795 10.9608 8.14917 11.1371 8.13324C11.3133 8.1173 11.4908 8.14472 11.6539 8.21304L30.9286 16.449V56.3427L10.1587 47.7763V9.18805ZM4.14286 49.0999V11.1225C4.1439 10.9648 4.18018 10.8093 4.24907 10.6671C4.31797 10.5249 4.41778 10.3997 4.54134 10.3003C4.66489 10.2009 4.80912 10.1299 4.96365 10.0924C5.11818 10.0548 5.27918 10.0517 5.43508 10.0832L8.01581 10.621V48.4848C8.01588 48.6945 8.07856 48.8996 8.19595 49.0741C8.31334 49.2486 8.4802 49.3848 8.67551 49.4655L18.3482 53.455L4.95432 50.1304C4.72241 50.0732 4.51651 49.9406 4.36944 49.7538C4.22237 49.567 4.14261 49.3368 4.14286 49.0999ZM59.8571 49.0999C59.8574 49.3367 59.7777 49.5669 59.6308 49.7536C59.4838 49.9404 59.278 50.073 59.0462 50.1304L45.6512 53.4551L55.3244 49.4656C55.5197 49.3849 55.6866 49.2487 55.804 49.0742C55.9214 48.8997 55.9841 48.6946 55.9841 48.4848V10.6211L58.5654 10.0832C58.7213 10.0518 58.8822 10.055 59.0367 10.0926C59.1912 10.1301 59.3353 10.2012 59.4588 10.3005C59.5823 10.3999 59.6821 10.5251 59.7509 10.6673C59.8198 10.8094 59.8561 10.9649 59.8571 11.1226V49.0999Z" fill="black" stroke="#F4F8FE" stroke-width="0.4"/>
</svg>
