<svg width="64" height="64" viewBox="0 0 64 64" fill="none" xmlns="http://www.w3.org/2000/svg">
<path d="M55.9999 8H7.99992C6.23245 8.00208 4.53796 8.70513 3.28817 9.95492C2.03838 11.2047 1.33533 12.8992 1.33325 14.6667V33.3333C1.33533 35.1008 2.03838 36.7953 3.28817 38.0451C4.53796 39.2949 6.23245 39.9979 7.99992 40H23.9999V42.6667H15.9999C15.6463 42.6667 15.3072 42.8071 15.0571 43.0572C14.8071 43.3072 14.6666 43.6464 14.6666 44V49.3333C14.6687 51.1008 15.3717 52.7953 16.6215 54.0451C17.8713 55.2949 19.5658 55.9979 21.3333 56H42.6666C44.4341 55.9979 46.1285 55.2949 47.3783 54.0451C48.6281 52.7953 49.3312 51.1008 49.3333 49.3333V44C49.3333 43.6464 49.1928 43.3072 48.9427 43.0572C48.6927 42.8071 48.3535 42.6667 47.9999 42.6667H39.9999V40H55.9999C57.7674 39.9979 59.4619 39.2949 60.7117 38.0451C61.9615 36.7953 62.6645 35.1008 62.6666 33.3333V14.6667C62.6645 12.8992 61.9615 11.2047 60.7117 9.95492C59.4619 8.70513 57.7674 8.00208 55.9999 8ZM46.6666 45.3333V49.3333C46.6654 50.3938 46.2436 51.4106 45.4937 52.1605C44.7438 52.9104 43.7271 53.3322 42.6666 53.3333H21.3333C20.2727 53.3322 19.256 52.9104 18.5061 52.1605C17.7562 51.4106 17.3344 50.3938 17.3333 49.3333V45.3333H46.6666ZM26.6666 42.6667V40H37.3333V42.6667H26.6666ZM59.9999 33.3333C59.9988 34.3938 59.577 35.4106 58.8271 36.1605C58.0772 36.9104 57.0604 37.3322 55.9999 37.3333H7.99992C6.93941 37.3322 5.92267 36.9104 5.17278 36.1605C4.42288 35.4106 4.00108 34.3938 3.99992 33.3333V14.6667C4.00108 13.6062 4.42288 12.5894 5.17278 11.8395C5.92267 11.0896 6.93941 10.6678 7.99992 10.6667H55.9999C57.0604 10.6678 58.0772 11.0896 58.8271 11.8395C59.577 12.5894 59.9988 13.6062 59.9999 14.6667V33.3333ZM31.9999 13.3333C29.8903 13.3333 27.828 13.9589 26.0738 15.131C24.3197 16.3031 22.9525 17.969 22.1452 19.918C21.3379 21.8671 21.1266 24.0118 21.5382 26.081C21.9498 28.1501 22.9657 30.0507 24.4574 31.5425C25.9492 33.0342 27.8498 34.0501 29.919 34.4617C31.9881 34.8733 34.1328 34.6621 36.0819 33.8547C38.031 33.0474 39.6969 31.6802 40.8689 29.9261C42.041 28.172 42.6666 26.1097 42.6666 24C42.6633 21.172 41.5385 18.4608 39.5388 16.4611C37.5391 14.4614 34.8279 13.3366 31.9999 13.3333ZM31.9999 32C30.4177 32 28.871 31.5308 27.5554 30.6518C26.2398 29.7727 25.2144 28.5233 24.6089 27.0615C24.0034 25.5997 23.845 23.9911 24.1536 22.4393C24.4623 20.8874 25.2242 19.462 26.3431 18.3431C27.4619 17.2243 28.8873 16.4624 30.4392 16.1537C31.991 15.845 33.5996 16.0035 35.0614 16.609C36.5232 17.2145 37.7726 18.2398 38.6517 19.5554C39.5307 20.871 39.9999 22.4177 39.9999 24C39.9976 26.121 39.154 28.1545 37.6542 29.6543C36.1544 31.1541 34.1209 31.9977 31.9999 32ZM31.9999 18.6667C30.9451 18.6667 29.9139 18.9795 29.0369 19.5655C28.1598 20.1515 27.4762 20.9845 27.0726 21.959C26.6689 22.9336 26.5633 24.0059 26.7691 25.0405C26.9749 26.075 27.4828 27.0254 28.2287 27.7712C28.9746 28.5171 29.9249 29.0251 30.9594 29.2309C31.994 29.4366 33.0664 29.331 34.0409 28.9274C35.0154 28.5237 35.8484 27.8401 36.4344 26.963C37.0205 26.086 37.3333 25.0548 37.3333 24C37.3317 22.586 36.7693 21.2303 35.7695 20.2304C34.7696 19.2306 33.4139 18.6682 31.9999 18.6667ZM31.9999 26.6667C31.4725 26.6667 30.9569 26.5103 30.5184 26.2173C30.0799 25.9242 29.7381 25.5078 29.5362 25.0205C29.3344 24.5332 29.2816 23.997 29.3845 23.4798C29.4874 22.9625 29.7414 22.4873 30.1143 22.1144C30.4872 21.7414 30.9624 21.4875 31.4797 21.3846C31.997 21.2817 32.5331 21.3345 33.0204 21.5363C33.5077 21.7382 33.9242 22.0799 34.2172 22.5185C34.5102 22.957 34.6666 23.4726 34.6666 24C34.6658 24.707 34.3846 25.3848 33.8846 25.8847C33.3847 26.3846 32.7069 26.6659 31.9999 26.6667ZM14.6666 24.6667C14.6666 25.0622 14.5493 25.4489 14.3295 25.7778C14.1098 26.1067 13.7974 26.3631 13.432 26.5144C13.0665 26.6658 12.6644 26.7054 12.2764 26.6282C11.8884 26.5511 11.5321 26.3606 11.2524 26.0809C10.9727 25.8012 10.7822 25.4448 10.705 25.0568C10.6278 24.6689 10.6675 24.2668 10.8188 23.9013C10.9702 23.5358 11.2265 23.2235 11.5554 23.0037C11.8843 22.784 12.271 22.6667 12.6666 22.6667C13.197 22.6667 13.7057 22.8774 14.0808 23.2525C14.4559 23.6275 14.6666 24.1362 14.6666 24.6667ZM53.3333 24.6667C53.3333 25.0622 53.216 25.4489 52.9962 25.7778C52.7764 26.1067 52.4641 26.3631 52.0986 26.5144C51.7332 26.6658 51.331 26.7054 50.9431 26.6282C50.5551 26.5511 50.1987 26.3606 49.919 26.0809C49.6393 25.8012 49.4489 25.4448 49.3717 25.0568C49.2945 24.6689 49.3341 24.2668 49.4855 23.9013C49.6369 23.5358 49.8932 23.2235 50.2221 23.0037C50.551 22.784 50.9377 22.6667 51.3333 22.6667C51.8637 22.6667 52.3724 22.8774 52.7475 23.2525C53.1225 23.6275 53.3333 24.1362 53.3333 24.6667Z" fill="black" stroke="white" stroke-width="0.8"/>
</svg>
